<svg xmlns="http://www.w3.org/2000/svg" viewBox="0 0 320 120" fill="currentColor" role="img" aria-label="Company logo"><title>Company logo</title><path d="M103.156 82a3391.757 3391.757 0 0 0 6.656-21.76c2.262-7.339 4.502-14.592 6.72-21.76h15.296a3391.757 3391.757 0 0 1 6.656 21.76c2.262 7.339 4.502 14.592 6.72 21.76H133.94c-.426-1.365-.832-2.73-1.216-4.096a117.586 117.586 0 0 0-1.216-4.16h-14.656a119.743 119.743 0 0 0-1.216 4.16A147.63 147.63 0 0 1 114.42 82h-11.264Zm16.512-17.792H128.692a719.302 719.302 0 0 0-2.24-7.616 743.734 743.734 0 0 1-2.24-7.616 301.696 301.696 0 0 1-2.304 7.616 743.734 743.734 0 0 0-2.24 7.616ZM148.739 82V48.912h10.56v1.792c1.322-.939 2.816-1.643 4.48-2.112 1.664-.47 3.477-.597 5.44-.384v10.368c-3.371-.47-5.867-.17-7.488.896-1.622 1.024-2.432 2.71-2.432 5.056V82h-10.56Zm36.13 0h-10.56V35.28h10.56v15.488a12.046 12.046 0 0 1 3.648-1.984 12.29 12.29 0 0 1 4.352-.768c2.133 0 4.16.427 6.08 1.28 1.92.81 3.605 1.984 5.056 3.52 1.493 1.536 2.645 3.37 3.456 5.504.853 2.133 1.28 4.501 1.28 7.104 0 2.56-.427 4.907-1.28 7.04-.811 2.133-1.963 3.99-3.456 5.568a15.614 15.614 0 0 1-5.056 3.584c-1.92.853-3.968 1.28-6.144 1.28a12.29 12.29 0 0 1-4.352-.768 11.499 11.499 0 0 1-3.584-2.048V82Zm6.528-8.448c2.09 0 3.733-.725 4.928-2.176 1.237-1.493 1.856-3.477 1.856-5.952s-.619-4.437-1.856-5.888c-1.195-1.45-2.838-2.176-4.928-2.176-2.048 0-3.691.747-4.928 2.24-1.238 1.45-1.856 3.392-1.856 5.824s.618 4.395 1.856 5.888c1.237 1.493 2.88 2.24 4.928 2.24Zm58.368 6.144c-4.438 1.792-8.576 2.816-12.416 3.072-3.798.299-7.232-.043-10.304-1.024-3.072-1.024-5.696-2.56-7.872-4.608-2.176-2.048-3.84-4.48-4.992-7.296-1.152-2.816-1.728-5.888-1.728-9.216 0-3.285.533-6.315 1.6-9.088 1.066-2.816 2.624-5.248 4.672-7.296 2.09-2.048 4.608-3.648 7.552-4.8 2.944-1.152 6.293-1.707 10.048-1.664 3.754 0 7.872.683 12.352 2.048V50.64c-3.542-1.408-6.827-2.219-9.856-2.432-2.987-.213-5.611.107-7.872.96-2.219.853-3.968 2.219-5.248 4.096-1.238 1.835-1.856 4.139-1.856 6.912 0 2.432.448 4.587 1.344 6.464.938 1.877 2.24 3.35 3.904 4.416 1.664 1.067 3.562 1.6 5.696 1.6.725 0 1.45-.021 2.176-.064a16.796 16.796 0 0 0 2.112-.384v-6.784h-7.168v-9.536h17.856v23.808Zm35.954.768c-2.944 1.237-5.867 2.005-8.768 2.304-2.902.299-5.654.128-8.256-.512-2.56-.597-4.843-1.643-6.848-3.136-2.006-1.493-3.584-3.392-4.736-5.696-1.11-2.304-1.664-4.97-1.664-8 0-2.517.405-4.821 1.216-6.912.853-2.133 2.048-3.99 3.584-5.568a15.44 15.44 0 0 1 5.44-3.712c2.09-.896 4.373-1.344 6.848-1.344 2.218 0 4.224.363 6.016 1.088a13.91 13.91 0 0 1 4.672 3.072c1.322 1.28 2.389 2.816 3.2 4.608.81 1.792 1.322 3.755 1.536 5.888.213 2.133.085 4.395-.384 6.784h-21.12c.81 1.621 2.154 2.773 4.032 3.456 1.92.683 4.181.896 6.784.64 2.645-.256 5.461-.939 8.448-2.048v9.088Zm-13.44-23.104c-1.238 0-2.39.341-3.456 1.024-1.024.683-1.814 1.728-2.368 3.136h11.584c-.512-1.45-1.28-2.496-2.304-3.136-.982-.683-2.134-1.024-3.456-1.024ZM296.695 82V58.384h-5.184v-9.472h5.184V40.08h10.56v8.832h6.016v9.472h-6.016V82h-10.56ZM15 30 .566 55h28.868L15 30Zm0 60h2.5V52.5h-5V90H15ZM60 90 45.568 65h28.867L60.001 90Zm0-60h2.5v37.5h-5V30H60Z"/></svg>